<svg width="13" height="15" viewBox="0 0 13 15" fill="none" xmlns="http://www.w3.org/2000/svg">
<path d="M8.31145 14.4006C8.18376 14.418 8.05027 14.4354 7.92258 14.447C7.78908 14.4529 7.66139 14.4645 7.5279 14.4645C7.26671 14.4645 6.99972 14.4587 6.73273 14.4354C6.19876 14.3774 5.67058 14.2555 5.15401 14.0756C4.11508 13.7215 3.1574 13.0947 2.36804 12.2821C1.97336 11.8758 1.62511 11.4173 1.3233 10.9239C1.02729 10.4306 0.783514 9.89662 0.603586 9.34523C0.417854 8.78803 0.307576 8.20762 0.255339 7.62721C0.243731 7.48211 0.232122 7.337 0.232122 7.18029C0.232122 7.10484 0.226318 7.02938 0.226318 6.95393L0.232122 6.72177C0.243731 6.41415 0.278556 6.10653 0.336597 5.80472C0.446875 5.19528 0.650019 4.60326 0.928616 4.04607C1.06792 3.76747 1.23043 3.50048 1.41036 3.2451C1.59029 2.98972 1.78182 2.74014 1.99657 2.51378C2.84398 1.58512 3.96997 0.90604 5.20045 0.569401C5.50806 0.488144 5.82149 0.418494 6.13491 0.383669C6.21617 0.372061 6.29162 0.366257 6.37288 0.360453C6.45414 0.354649 6.52959 0.343041 6.61085 0.343041C6.76756 0.337237 6.92427 0.331432 7.09839 0.331432C7.43503 0.337236 7.76587 0.372061 8.0967 0.435907C8.42754 0.499752 8.75257 0.592618 9.06599 0.714504C9.69864 0.958277 10.2849 1.31233 10.7898 1.75344C11.3006 2.19455 11.7359 2.72273 12.0667 3.30894C12.3976 3.90096 12.6239 4.54522 12.7342 5.2127C12.7864 5.54353 12.8154 5.88017 12.8154 6.21681C12.8096 6.39674 12.798 6.57086 12.7864 6.75079C12.7574 6.92491 12.7342 7.10484 12.6936 7.27896C12.3743 8.67775 11.4341 9.90242 10.1746 10.5583C9.54773 10.8833 8.85124 11.0749 8.14894 11.1097C7.97481 11.1155 7.8065 11.1271 7.61496 11.1097C7.52209 11.1039 7.42923 11.0981 7.33636 11.0865C7.2435 11.0691 7.15063 11.0574 7.06357 11.04C6.9707 11.0284 6.88364 10.9994 6.79078 10.9762C6.70371 10.9472 6.61085 10.9298 6.52379 10.8949C6.34966 10.8253 6.17554 10.7614 6.01302 10.6744C5.35135 10.3435 4.79416 9.82697 4.40528 9.21173C4.31822 9.05502 4.21955 8.89831 4.1499 8.72999C4.11508 8.64873 4.07445 8.56748 4.04543 8.48041L3.96997 8.20762C3.94095 8.12056 3.92354 8.0335 3.90032 7.94643C3.88291 7.85937 3.8597 7.77231 3.84809 7.67944C3.82487 7.49952 3.80165 7.32539 3.80165 7.14547V7.01197C3.80165 6.96554 3.80165 6.92491 3.80165 6.87267C3.80746 6.77981 3.81907 6.68114 3.82487 6.58827C3.85389 6.39674 3.88872 6.211 3.95256 6.03108C4.06864 5.66542 4.24277 5.32878 4.46332 5.02696C4.91024 4.42334 5.5545 3.98803 6.2626 3.80229C6.34966 3.78488 6.44253 3.76167 6.52959 3.74425C6.61665 3.72684 6.70952 3.72104 6.79658 3.70943C6.88364 3.69782 6.97651 3.69782 7.06357 3.69782C7.15063 3.69782 7.2435 3.69782 7.33636 3.70943C7.71943 3.73845 8.0909 3.85453 8.42173 4.04026C8.75257 4.226 9.03697 4.47557 9.25752 4.77158C9.47808 5.06759 9.63479 5.40423 9.71025 5.75828C9.75087 5.93241 9.76829 6.11233 9.76829 6.29226C9.76829 6.37932 9.76829 6.46638 9.75668 6.56505C9.75087 6.61149 9.74507 6.65792 9.73927 6.70435L9.71025 6.84365C9.69864 6.89009 9.68703 6.93652 9.67542 6.97715C9.66381 7.02358 9.6464 7.06421 9.62899 7.11064C9.59416 7.1977 9.55934 7.28476 9.51291 7.36022C9.42584 7.52273 9.31557 7.66784 9.18787 7.80133C8.93249 8.06252 8.61907 8.25405 8.28243 8.34692C7.94579 8.44559 7.59755 8.45139 7.2493 8.35272C6.90686 8.24825 6.61085 8.0335 6.41931 7.7607C6.22778 7.48791 6.1233 7.15127 6.14071 6.83204C6.14652 6.67533 6.18715 6.50701 6.2568 6.36191C6.32645 6.21681 6.42512 6.08912 6.5412 5.99045C6.65728 5.89178 6.79078 5.81632 6.93588 5.77569C7.07518 5.73507 7.22608 5.72346 7.36538 5.74087H7.37699C7.42342 5.74667 7.45244 5.7873 7.44664 5.83374C7.44084 5.87436 7.40601 5.90339 7.36538 5.90339C7.13322 5.90339 6.90105 6.00786 6.74434 6.17618C6.58763 6.3445 6.50057 6.58247 6.51798 6.81463C6.52959 7.0526 6.62246 7.27896 6.77336 7.45889C6.92427 7.63882 7.13902 7.7607 7.36538 7.81294C7.59174 7.85937 7.84132 7.83035 8.06188 7.74909C8.28824 7.66784 8.47977 7.52273 8.63648 7.34281C8.70613 7.24994 8.77578 7.15127 8.82222 7.04099C8.85124 6.98875 8.86284 6.93071 8.88606 6.87848C8.89186 6.84946 8.89767 6.82044 8.90928 6.79142C8.91508 6.76239 8.92669 6.73337 8.92669 6.70435C8.96732 6.47219 8.9441 6.22842 8.87445 5.99625C8.8048 5.76989 8.69453 5.54933 8.54362 5.36941C8.38691 5.18948 8.19537 5.03857 7.98642 4.9341C7.77167 4.82962 7.53951 4.77158 7.30154 4.75997C7.06357 4.75417 6.8198 4.78319 6.58763 4.85864C6.12911 5.00375 5.72282 5.30556 5.45002 5.70605C5.31653 5.90339 5.21206 6.12975 5.15401 6.36191C5.11919 6.47799 5.10178 6.59988 5.09017 6.71596L5.08436 6.89589C5.07856 6.95393 5.09017 7.01778 5.09017 7.07582C5.11339 7.56336 5.2817 8.0393 5.54869 8.44559C5.82729 8.84607 6.19875 9.17691 6.63987 9.38586C7.07518 9.60061 7.56853 9.67606 8.05607 9.63543C8.54362 9.60061 9.02536 9.46131 9.45486 9.22334C9.88437 8.98537 10.2616 8.65454 10.5518 8.26566C10.842 7.87679 11.051 7.41826 11.1555 6.94232C11.1671 6.9133 11.1671 6.88428 11.1729 6.85526L11.1845 6.76239L11.2135 6.58247C11.2251 6.46058 11.2251 6.33869 11.2309 6.21681C11.2309 5.97303 11.2077 5.72346 11.1671 5.47968C11.0858 4.99214 10.9117 4.52201 10.6737 4.0983C10.4358 3.6688 10.1165 3.27992 9.74507 2.95489C9.55934 2.79238 9.362 2.64728 9.15305 2.51378C8.9441 2.38609 8.72355 2.27581 8.49138 2.18295C7.57433 1.81148 6.53539 1.80568 5.57191 2.04365C4.60843 2.28742 3.71459 2.79818 3.01229 3.51209C2.3158 4.22019 1.81665 5.12563 1.59029 6.09492C1.4742 6.58247 1.43357 7.08162 1.45099 7.58078C1.4684 8.07993 1.53805 8.57908 1.66574 9.06663C1.92112 10.0359 2.38545 10.953 3.02971 11.7249C3.66816 12.4969 4.47493 13.1353 5.38618 13.5706C6.29742 14.0059 7.30154 14.2323 8.31145 14.2439C8.35789 14.2439 8.39271 14.2787 8.39271 14.3252C8.39271 14.3658 8.36369 14.4006 8.32306 14.4064L8.31145 14.4006Z" fill="white"/>
</svg>
